STARTFONT 2.1
COMMENT Created by fdbbdf
FONT helvetica12bi
SIZE 12 78 78
FONTBOUNDINGBOX 17 14 -1 -4
STARTPROPERTIES 4
Ownership "  Copyright (c) 1984 Adobe Systems, Inc.  /adobe/fonttools/bitmaps/stdfontvec.ps HM14.bits  TOTAL BITMAP BYTES 1442  GUIDELINES -3 0 8 11 0 0 DONE  WIDTHERR -124 -270  "
FONT_ASCENT 10
FONT_DESCENT 4
DEFAULT_CHAR 32
ENDPROPERTIES
CHARS 95
STARTCHAR sp
ENCODING -1 32
SWIDTH 0 0
DWIDTH 4 0
BBX 0 0 0 0
BITMAP
ENDCHAR
STARTCHAR !
ENCODING -1 33
SWIDTH 0 0
DWIDTH 5 0
BBX 5 11 2 -1
BITMAP
1800
1800
3000
3000
3000
6000
6000
4000
0000
c000
c000
ENDCHAR
STARTCHAR "
ENCODING -1 34
SWIDTH 0 0
DWIDTH 7 0
BBX 5 3 4 7
BITMAP
d800
d800
9000
ENDCHAR
STARTCHAR #
ENCODING -1 35
SWIDTH 0 0
DWIDTH 10 0
BBX 10 10 1 -1
BITMAP
0d80
0d80
1b00
7fc0
1b00
3600
ff00
6c00
d800
d800
ENDCHAR
STARTCHAR $
ENCODING -1 36
SWIDTH 0 0
DWIDTH 8 0
BBX 8 12 1 -2
BITMAP
0400
3e00
6b00
6800
3800
1c00
1600
1600
a600
ec00
7800
4000
ENDCHAR
STARTCHAR %
ENCODING -1 37
SWIDTH 0 0
DWIDTH 13 0
BBX 11 10 2 -1
BITMAP
3860
64c0
4d80
3b00
0600
0c00
1b80
3640
64c0
c380
ENDCHAR
STARTCHAR &
ENCODING -1 38
SWIDTH 0 0
DWIDTH 11 0
BBX 12 10 1 -1
BITMAP
0e00
1b00
1300
1e00
3c60
66c0
c380
c380
e7c0
7e60
ENDCHAR
STARTCHAR '
ENCODING -1 39
SWIDTH 0 0
DWIDTH 5 0
BBX 3 3 4 7
BITMAP
e000
6000
c000
ENDCHAR
STARTCHAR (
ENCODING -1 40
SWIDTH 0 0
DWIDTH 5 0
BBX 6 14 1 -4
BITMAP
0c00
1800
3000
6000
6000
c000
c000
c000
c000
c000
c000
6000
6000
3000
ENDCHAR
STARTCHAR )
ENCODING -1 41
SWIDTH 0 0
DWIDTH 6 0
BBX 6 14 0 -4
BITMAP
3000
1800
1800
0c00
0c00
0c00
0c00
0c00
0c00
1800
1800
3000
6000
c000
ENDCHAR
STARTCHAR *
ENCODING -1 42
SWIDTH 0 0
DWIDTH 6 0
BBX 5 4 3 6
BITMAP
2000
f800
6000
a000
ENDCHAR
STARTCHAR +
ENCODING -1 43
SWIDTH 0 0
DWIDTH 10 0
BBX 8 8 1 0
BITMAP
1800
1800
1800
ff00
ff00
1800
1800
1800
ENDCHAR
STARTCHAR ,
ENCODING -1 44
SWIDTH 0 0
DWIDTH 4 0
BBX 3 4 1 -3
BITMAP
6000
6000
6000
c000
ENDCHAR
STARTCHAR -
ENCODING -1 45
SWIDTH 0 0
DWIDTH 8 0
BBX 6 2 1 3
BITMAP
7c00
7c00
ENDCHAR
STARTCHAR .
ENCODING -1 46
SWIDTH 0 0
DWIDTH 4 0
BBX 2 2 1 -1
BITMAP
c000
c000
ENDCHAR
STARTCHAR /
ENCODING -1 47
SWIDTH 0 0
DWIDTH 4 0
BBX 7 11 0 -1
BITMAP
0600
0600
0c00
0c00
1800
1800
3000
3000
6000
6000
c000
ENDCHAR
STARTCHAR 0
ENCODING -1 48
SWIDTH 0 0
DWIDTH 8 0
BBX 8 10 1 -1
BITMAP
1e00
3300
6300
6300
4300
c200
c600
c600
cc00
7800
ENDCHAR
STARTCHAR 1
ENCODING -1 49
SWIDTH 0 0
DWIDTH 5 0
BBX 5 10 1 -1
BITMAP
1800
7800
3000
3000
6000
6000
6000
c000
c000
c000
ENDCHAR
STARTCHAR 2
ENCODING -1 50
SWIDTH 0 0
DWIDTH 8 0
BBX 8 10 1 -1
BITMAP
3e00
6300
0300
0700
0e00
3800
6000
c000
c000
fc00
ENDCHAR
STARTCHAR 3
ENCODING -1 51
SWIDTH 0 0
DWIDTH 8 0
BBX 8 10 1 -1
BITMAP
1e00
3300
0300
0600
1c00
0600
0600
c600
cc00
7800
ENDCHAR
STARTCHAR 4
ENCODING -1 52
SWIDTH 0 0
DWIDTH 8 0
BBX 8 10 1 -1
BITMAP
0300
0700
1b00
3600
6600
c600
ff00
0c00
0c00
0c00
ENDCHAR
STARTCHAR 5
ENCODING -1 53
SWIDTH 0 0
DWIDTH 8 0
BBX 8 10 1 -1
BITMAP
3f00
3000
6000
7c00
0e00
0600
0600
c600
cc00
7800
ENDCHAR
STARTCHAR 6
ENCODING -1 54
SWIDTH 0 0
DWIDTH 8 0
BBX 8 10 1 -1
BITMAP
1e00
3300
6000
6000
7c00
e600
c600
c600
cc00
7800
ENDCHAR
STARTCHAR 7
ENCODING -1 55
SWIDTH 0 0
DWIDTH 8 0
BBX 7 10 2 -1
BITMAP
7e00
0600
0c00
1800
3000
3000
6000
6000
c000
c000
ENDCHAR
STARTCHAR 8
ENCODING -1 56
SWIDTH 0 0
DWIDTH 8 0
BBX 8 10 1 -1
BITMAP
1e00
3300
6300
6600
3c00
6600
c600
c600
cc00
7800
ENDCHAR
STARTCHAR 9
ENCODING -1 57
SWIDTH 0 0
DWIDTH 8 0
BBX 8 10 1 -1
BITMAP
1e00
3300
6300
6300
6700
3e00
0600
c600
cc00
7800
ENDCHAR
STARTCHAR :
ENCODING -1 58
SWIDTH 0 0
DWIDTH 5 0
BBX 4 8 2 -1
BITMAP
3000
3000
0000
0000
0000
0000
c000
c000
ENDCHAR
STARTCHAR ;
ENCODING -1 59
SWIDTH 0 0
DWIDTH 5 0
BBX 5 10 1 -3
BITMAP
1800
1800
0000
0000
0000
0000
6000
6000
6000
c000
ENDCHAR
STARTCHAR <
ENCODING -1 60
SWIDTH 0 0
DWIDTH 8 0
BBX 8 5 1 1
BITMAP
0700
3c00
e000
3800
0e00
ENDCHAR
STARTCHAR =
ENCODING -1 61
SWIDTH 0 0
DWIDTH 9 0
BBX 7 5 1 1
BITMAP
7e00
7e00
0000
7e00
7e00
ENDCHAR
STARTCHAR >
ENCODING -1 62
SWIDTH 0 0
DWIDTH 9 0
BBX 8 5 1 1
BITMAP
7000
1c00
0700
3c00
e000
ENDCHAR
STARTCHAR ?
ENCODING -1 63
SWIDTH 0 0
DWIDTH 9 0
BBX 8 11 3 -1
BITMAP
3e00
7300
6300
0700
0e00
3800
6000
6000
0000
c000
c000
ENDCHAR
STARTCHAR @
ENCODING -1 64
SWIDTH 0 0
DWIDTH 14 0
BBX 13 13 1 -3
BITMAP
07e0
1c30
3018
6348
4cc8
c998
9190
9330
9b60
cdc0
4000
71c0
1f00
ENDCHAR
STARTCHAR A
ENCODING -1 65
SWIDTH 0 0
DWIDTH 10 0
BBX 9 11 0 -1
BITMAP
0300
0700
0780
0d80
0d80
1980
1980
3f80
3180
6180
6180
ENDCHAR
STARTCHAR B
ENCODING -1 66
SWIDTH 0 0
DWIDTH 10 0
BBX 10 11 1 -1
BITMAP
1f80
18c0
18c0
30c0
3180
3f00
6180
6180
6180
c300
fe00
ENDCHAR
STARTCHAR C
ENCODING -1 67
SWIDTH 0 0
DWIDTH 11 0
BBX 10 11 2 -1
BITMAP
0780
1cc0
30c0
6000
6000
c000
c000
c000
c180
6700
3c00
ENDCHAR
STARTCHAR D
ENCODING -1 68
SWIDTH 0 0
DWIDTH 11 0
BBX 11 11 1 -1
BITMAP
1f80
18c0
3060
3060
3060
6060
60c0
60c0
c180
c700
fc00
ENDCHAR
STARTCHAR E
ENCODING -1 69
SWIDTH 0 0
DWIDTH 10 0
BBX 10 11 1 -1
BITMAP
1fc0
1800
1800
3000
3000
3f80
6000
6000
6000
c000
fe00
ENDCHAR
STARTCHAR F
ENCODING -1 70
SWIDTH 0 0
DWIDTH 9 0
BBX 10 11 1 -1
BITMAP
1fc0
1800
1800
3000
3000
3f00
6000
6000
6000
c000
c000
ENDCHAR
STARTCHAR G
ENCODING -1 71
SWIDTH 0 0
DWIDTH 11 0
BBX 11 11 2 -1
BITMAP
0780
1cc0
3040
6000
6000
c3c0
c180
c180
c300
6700
3d00
ENDCHAR
STARTCHAR H
ENCODING -1 72
SWIDTH 0 0
DWIDTH 11 0
BBX 11 11 1 -1
BITMAP
1860
1860
30c0
30c0
30c0
7f80
6180
6180
c300
c300
c300
ENDCHAR
STARTCHAR I
ENCODING -1 73
SWIDTH 0 0
DWIDTH 5 0
BBX 5 11 1 -1
BITMAP
1800
1800
3000
3000
3000
6000
6000
6000
c000
c000
c000
ENDCHAR
STARTCHAR J
ENCODING -1 74
SWIDTH 0 0
DWIDTH 9 0
BBX 9 11 1 -1
BITMAP
0180
0180
0180
0300
0300
0300
0600
c600
c600
ec00
7800
ENDCHAR
STARTCHAR K
ENCODING -1 75
SWIDTH 0 0
DWIDTH 10 0
BBX 11 11 1 -1
BITMAP
18c0
1980
1b00
3600
3c00
3c00
6600
6600
6300
c300
c180
ENDCHAR
STARTCHAR L
ENCODING -1 76
SWIDTH 0 0
DWIDTH 8 0
BBX 7 11 1 -1
BITMAP
1800
1800
3000
3000
3000
6000
6000
6000
c000
c000
fe00
ENDCHAR
STARTCHAR M
ENCODING -1 77
SWIDTH 0 0
DWIDTH 14 0
BBX 14 11 1 -1
BITMAP
180c
181c
1c3c
3c68
3458
34d8
65b0
6730
6730
c660
c660
ENDCHAR
STARTCHAR N
ENCODING -1 78
SWIDTH 0 0
DWIDTH 12 0
BBX 12 11 1 -1
BITMAP
1830
1830
1c30
3c60
3460
3660
66c0
62c0
63c0
c180
c180
ENDCHAR
STARTCHAR O
ENCODING -1 79
SWIDTH 0 0
DWIDTH 13 0
BBX 11 11 2 -1
BITMAP
0780
1cc0
3060
6060
6060
c060
c0c0
c0c0
c180
6700
3c00
ENDCHAR
STARTCHAR P
ENCODING -1 80
SWIDTH 0 0
DWIDTH 10 0
BBX 10 11 1 -1
BITMAP
1f80
18c0
18c0
30c0
3180
3f00
6000
6000
6000
c000
c000
ENDCHAR
STARTCHAR Q
ENCODING -1 81
SWIDTH 0 0
DWIDTH 12 0
BBX 11 11 2 -1
BITMAP
0780
1cc0
3060
6060
6060
c060
c0c0
c6c0
c380
6700
3d80
ENDCHAR
STARTCHAR R
ENCODING -1 82
SWIDTH 0 0
DWIDTH 10 0
BBX 10 11 1 -1
BITMAP
1f80
18c0
18c0
30c0
3180
3f00
6180
6180
6180
c300
c300
ENDCHAR
STARTCHAR S
ENCODING -1 83
SWIDTH 0 0
DWIDTH 10 0
BBX 10 11 1 -1
BITMAP
0f80
19c0
30c0
3000
1c00
0f00
0380
c180
c180
6300
3e00
ENDCHAR
STARTCHAR T
ENCODING -1 84
SWIDTH 0 0
DWIDTH 10 0
BBX 8 11 3 -1
BITMAP
ff00
1800
1800
3000
3000
3000
6000
6000
6000
c000
c000
ENDCHAR
STARTCHAR U
ENCODING -1 85
SWIDTH 0 0
DWIDTH 12 0
BBX 11 11 2 -1
BITMAP
1860
1860
30c0
30c0
30c0
6180
6180
6180
c300
c300
7c00
ENDCHAR
STARTCHAR V
ENCODING -1 86
SWIDTH 0 0
DWIDTH 9 0
BBX 9 11 3 -1
BITMAP
c300
c300
c600
c600
cc00
cc00
d800
d800
f000
7000
6000
ENDCHAR
STARTCHAR W
ENCODING -1 87
SWIDTH 0 0
DWIDTH 15 0
BBX 13 11 3 -1
BITMAP
c618
c618
c630
ce30
ca60
da60
d2c0
f2c0
e380
e380
c300
ENDCHAR
STARTCHAR X
ENCODING -1 88
SWIDTH 0 0
DWIDTH 13 0
BBX 12 11 1 -1
BITMAP
1830
1860
0cc0
0d80
0700
0600
0e00
1b00
3300
6180
c180
ENDCHAR
STARTCHAR Y
ENCODING -1 89
SWIDTH 0 0
DWIDTH 10 0
BBX 10 11 1 -1
BITMAP
c0c0
c180
6300
6600
6c00
3800
3000
3000
6000
6000
6000
ENDCHAR
STARTCHAR Z
ENCODING -1 90
SWIDTH 0 0
DWIDTH 9 0
BBX 11 11 0 -1
BITMAP
1fe0
00c0
0180
0300
0600
0c00
1800
3000
6000
c000
ff00
ENDCHAR
STARTCHAR [
ENCODING -1 91
SWIDTH 0 0
DWIDTH 5 0
BBX 8 14 0 -4
BITMAP
0f00
0c00
0c00
1800
1800
1800
3000
3000
3000
6000
6000
c000
c000
f000
ENDCHAR
STARTCHAR \
ENCODING -1 92
SWIDTH 0 0
DWIDTH 6 0
BBX 3 11 3 -1
BITMAP
c000
c000
c000
c000
c000
6000
6000
6000
6000
6000
6000
ENDCHAR
STARTCHAR ]
ENCODING -1 93
SWIDTH 0 0
DWIDTH 5 0
BBX 8 14 -1 -4
BITMAP
0f00
0300
0300
0600
0600
0600
0c00
0c00
0c00
1800
1800
3000
3000
f000
ENDCHAR
STARTCHAR ^
ENCODING -1 94
SWIDTH 0 0
DWIDTH 8 0
BBX 6 6 2 4
BITMAP
1800
3800
6c00
6c00
cc00
cc00
ENDCHAR
STARTCHAR _
ENCODING -1 95
SWIDTH 0 0
DWIDTH 8 0
BBX 8 1 -1 -4
BITMAP
ff00
ENDCHAR
STARTCHAR `
ENCODING -1 96
SWIDTH 0 0
DWIDTH 5 0
BBX 3 3 4 7
BITMAP
6000
c000
e000
ENDCHAR
STARTCHAR a
ENCODING -1 97
SWIDTH 0 0
DWIDTH 9 0
BBX 8 8 1 -1
BITMAP
1e00
3300
0300
3e00
6600
c600
cc00
7600
ENDCHAR
STARTCHAR b
ENCODING -1 98
SWIDTH 0 0
DWIDTH 10 0
BBX 9 11 1 -1
BITMAP
1800
1800
3000
3700
3980
7180
6180
6300
c300
e600
dc00
ENDCHAR
STARTCHAR c
ENCODING -1 99
SWIDTH 0 0
DWIDTH 8 0
BBX 8 8 1 -1
BITMAP
1e00
3300
6300
6000
c000
c600
cc00
7800
ENDCHAR
STARTCHAR d
ENCODING -1 100
SWIDTH 0 0
DWIDTH 9 0
BBX 10 11 1 -1
BITMAP
00c0
00c0
0180
1d80
3380
6300
6300
c300
c600
ce00
7600
ENDCHAR
STARTCHAR e
ENCODING -1 101
SWIDTH 0 0
DWIDTH 8 0
BBX 8 8 1 -1
BITMAP
1e00
3300
6300
7e00
c000
c000
cc00
7800
ENDCHAR
STARTCHAR f
ENCODING -1 102
SWIDTH 0 0
DWIDTH 6 0
BBX 7 11 1 -1
BITMAP
0e00
1800
1800
7c00
3000
3000
6000
6000
6000
c000
c000
ENDCHAR
STARTCHAR g
ENCODING -1 103
SWIDTH 0 0
DWIDTH 9 0
BBX 10 11 0 -4
BITMAP
0ec0
19c0
30c0
3180
6180
6180
6300
3f00
0300
c600
7800
ENDCHAR
STARTCHAR h
ENCODING -1 104
SWIDTH 0 0
DWIDTH 9 0
BBX 9 11 1 -1
BITMAP
1800
1800
3000
3700
3980
6180
6300
6300
c300
c600
c600
ENDCHAR
STARTCHAR i
ENCODING -1 105
SWIDTH 0 0
DWIDTH 4 0
BBX 5 11 1 -1
BITMAP
1800
1800
0000
3000
3000
6000
6000
6000
c000
c000
c000
ENDCHAR
STARTCHAR j
ENCODING -1 106
SWIDTH 0 0
DWIDTH 6 0
BBX 8 14 -1 -4
BITMAP
0300
0300
0000
0600
0600
0600
0c00
0c00
0c00
1800
1800
1800
f000
e000
ENDCHAR
STARTCHAR k
ENCODING -1 107
SWIDTH 0 0
DWIDTH 8 0
BBX 8 11 1 -1
BITMAP
1800
1800
3000
3300
3600
7c00
7800
6c00
cc00
c600
c600
ENDCHAR
STARTCHAR l
ENCODING -1 108
SWIDTH 0 0
DWIDTH 4 0
BBX 5 11 1 -1
BITMAP
1800
1800
3000
3000
3000
6000
6000
6000
c000
c000
c000
ENDCHAR
STARTCHAR m
ENCODING -1 109
SWIDTH 0 0
DWIDTH 12 0
BBX 12 8 1 -1
BITMAP
36e0
3bb0
3330
6660
6660
6660
ccc0
ccc0
ENDCHAR
STARTCHAR n
ENCODING -1 110
SWIDTH 0 0
DWIDTH 9 0
BBX 9 8 1 -1
BITMAP
3700
3980
3180
6300
6300
6300
c600
c600
ENDCHAR
STARTCHAR o
ENCODING -1 111
SWIDTH 0 0
DWIDTH 9 0
BBX 8 8 1 -1
BITMAP
1e00
3300
6300
6300
c600
c600
cc00
7800
ENDCHAR
STARTCHAR p
ENCODING -1 112
SWIDTH 0 0
DWIDTH 9 0
BBX 10 11 0 -4
BITMAP
1b80
1cc0
18c0
38c0
3180
3180
7b00
6e00
6000
c000
c000
ENDCHAR
STARTCHAR q
ENCODING -1 113
SWIDTH 0 0
DWIDTH 9 0
BBX 9 11 1 -4
BITMAP
0d80
3380
6180
6300
c300
c700
ce00
7600
0600
0c00
0c00
ENDCHAR
STARTCHAR r
ENCODING -1 114
SWIDTH 0 0
DWIDTH 7 0
BBX 7 8 1 -1
BITMAP
3600
3e00
3000
6000
6000
6000
c000
c000
ENDCHAR
STARTCHAR s
ENCODING -1 115
SWIDTH 0 0
DWIDTH 8 0
BBX 8 8 1 -1
BITMAP
1e00
3300
3000
1c00
0600
c600
cc00
7800
ENDCHAR
STARTCHAR t
ENCODING -1 116
SWIDTH 0 0
DWIDTH 6 0
BBX 6 10 1 -1
BITMAP
1800
1800
7c00
3000
3000
6000
6000
c000
c000
6000
ENDCHAR
STARTCHAR u
ENCODING -1 117
SWIDTH 0 0
DWIDTH 9 0
BBX 9 8 1 -1
BITMAP
3180
3180
6300
6300
6300
c600
ce00
7600
ENDCHAR
STARTCHAR v
ENCODING -1 118
SWIDTH 0 0
DWIDTH 7 0
BBX 8 8 2 -1
BITMAP
cc00
cc00
d800
d800
d000
f000
6000
6000
ENDCHAR
STARTCHAR w
ENCODING -1 119
SWIDTH 0 0
DWIDTH 11 0
BBX 10 8 2 -1
BITMAP
ccc0
ccc0
cd80
dd80
d500
f700
6600
6600
ENDCHAR
STARTCHAR x
ENCODING -1 120
SWIDTH 0 0
DWIDTH 7 0
BBX 9 8 0 -1
BITMAP
3180
3300
1600
1c00
1c00
3400
6600
c600
ENDCHAR
STARTCHAR y
ENCODING -1 121
SWIDTH 0 0
DWIDTH 8 0
BBX 9 11 0 -4
BITMAP
3180
3180
3300
3300
3600
3600
1c00
1c00
1800
3000
e000
ENDCHAR
STARTCHAR z
ENCODING -1 122
SWIDTH 0 0
DWIDTH 6 0
BBX 8 8 0 -1
BITMAP
3f00
0600
0c00
1800
3000
6000
c000
fc00
ENDCHAR
STARTCHAR {
ENCODING -1 123
SWIDTH 0 0
DWIDTH 6 0
BBX 7 14 1 -4
BITMAP
0600
0c00
1800
1800
1800
3000
c000
6000
6000
6000
c000
c000
c000
6000
ENDCHAR
STARTCHAR |
ENCODING -1 124
SWIDTH 0 0
DWIDTH 4 0
BBX 6 14 0 -4
BITMAP
0c00
0c00
0c00
1800
1800
1800
3000
3000
3000
6000
6000
6000
c000
c000
ENDCHAR
STARTCHAR }
ENCODING -1 125
SWIDTH 0 0
DWIDTH 6 0
BBX 7 14 0 -4
BITMAP
0c00
0600
0600
0600
0c00
0c00
0600
1800
1800
3000
3000
3000
6000
c000
ENDCHAR
STARTCHAR ~
ENCODING -1 126
SWIDTH 0 0
DWIDTH 9 0
BBX 8 3 1 2
BITMAP
7100
db00
8e00
ENDCHAR
ENDFONT
